<?xml version="1.0" encoding="utf-8"?>
<!-- Generator: Adobe Illustrator 19.0.0, SVG Export Plug-In . SVG Version: 6.00 Build 0)  -->
<svg version="1.1" id="Layer_1" xmlns="http://www.w3.org/2000/svg" xmlns:xlink="http://www.w3.org/1999/xlink" x="0px" y="0px"
	 viewBox="0 0 20 22" style="enable-background:new 0 0 20 22;" xml:space="preserve">
<style type="text/css">
	.st0{fill:#231F20;}
</style>
<path id="XMLID_2_" class="st0" d="M13.5,11.6l0.3-0.5c0.6-1.1,1-2.4,1-3.7c0-4-3.3-7.3-7.3-7.3c-4,0-7.3,3.3-7.3,7.3
	s3.3,7.3,7.3,7.3c1.3,0,2.5-0.3,3.7-1l0.5-0.3l4.5,4.5c0.5,0.5,1.4,0.5,1.9,0c0.5-0.5,0.5-1.4,0-1.9L13.5,11.6z M7.5,12.1
	c-2.5,0-4.6-2.1-4.6-4.6c0-2.5,2.1-4.6,4.6-4.6s4.6,2.1,4.6,4.6C12.1,10,10,12.1,7.5,12.1z"/>
</svg>
