<?xml version="1.0" encoding="utf-8"?>
<!-- Generator: Adobe Illustrator 19.0.0, SVG Export Plug-In . SVG Version: 6.00 Build 0)  -->
<svg version="1.1" id="Layer_1" xmlns="http://www.w3.org/2000/svg" xmlns:xlink="http://www.w3.org/1999/xlink" x="0px" y="0px"
	 viewBox="0 0 20 20" style="enable-background:new 0 0 20 20;" xml:space="preserve">
<style type="text/css">
	.st0{fill:none;stroke:#000000;stroke-miterlimit:10;}
</style>
<g id="XMLID_3_">
	<polygon id="XMLID_5_" class="st0" points="11.5,3.9 4.1,11.3 3.5,16.5 8.7,15.9 16.5,8.1 11.9,3.5 	"/>
	<path id="XMLID_1_" d="M5.4,16.1c-0.4,0.5-1.1,0.5-1.5,0.1c-0.4-0.4-0.4-1.1,0.1-1.5c0.4-0.4,0.9-0.2,1.3,0.1
		C5.6,15.2,5.9,15.7,5.4,16.1z"/>
	<path id="XMLID_2_" class="st0" d="M4.1,11.3l4.6,4.6L4.1,11.3z"/>
	<path id="XMLID_4_" d="M7,11.9l-0.3-0.3l5.4-5.5l0.3,0.3L7,11.9z"/>
	<path id="XMLID_6_" d="M8.6,13.6l-0.3-0.3l5.4-5.5L14,8.1L8.6,13.6z"/>
</g>
</svg>
