<?xml version="1.0" encoding="utf-8"?>
<svg version="1.1" id="Layer_1" xmlns="http://www.w3.org/2000/svg" xmlns:xlink="http://www.w3.org/1999/xlink" x="0px" y="0px"
	 viewBox="0 0 80 80" style="enable-background:new 0 0 80 80;" xml:space="preserve">
<g>
	<path d="M-1394.2-43.7h-6l-1.6,4.6h-2.3l5.7-15.9h2.3l5.7,15.9h-2.3L-1394.2-43.7z M-1397.1-52.8c0,0-0.4,1.4-0.6,2.2l-1.8,5h4.8
		l-1.8-5C-1396.8-51.4-1397.1-52.8-1397.1-52.8L-1397.1-52.8z"/>
	<path d="M-1382.5-55h4.9c1.7,0,2.4,0.1,3,0.4c1.6,0.6,2.7,2.2,2.7,4.3c0,2-1.1,3.7-2.9,4.3l0,0c0,0,0.2,0.2,0.5,0.7l3.4,6.2h-2.5
		l-3.3-6.3h-3.4v6.3h-2.2V-55H-1382.5z M-1377.1-47.4c1.7,0,2.8-1.1,2.8-2.9c0-1.2-0.4-2-1.3-2.4c-0.4-0.2-0.9-0.4-2.2-0.4h-2.6v5.7
		H-1377.1z"/>
	<path d="M-1366.3-41.4h2.3v2.3h-2.3V-41.4z"/>
	<path d="M-1357.9-42.6c0,0,1.7,1.7,4,1.7c1.5,0,2.7-0.8,2.7-2.3c0-3.4-7.7-2.7-7.7-7.6c0-2.5,2.1-4.4,5.1-4.4
		c2.9,0,4.5,1.6,4.5,1.6l-1,1.8c0,0-1.5-1.4-3.5-1.4c-1.7,0-2.9,1.1-2.9,2.3c0,3.3,7.7,2.4,7.7,7.5c0,2.4-1.9,4.5-5,4.5
		c-3.4,0-5.3-2.1-5.3-2.1L-1357.9-42.6z"/>
</g>
<g>
	<g>
		<path d="M22.3,43.5h-6L14.8,48h-2.3L18.2,32h2.3L26.3,48H24L22.3,43.5z M19.4,34.3c0,0-0.4,1.4-0.6,2.2l-1.8,5h4.8l-1.8-5
			C19.7,35.8,19.4,34.3,19.4,34.3L19.4,34.3z"/>
		<path d="M34,32.1h4.9c1.7,0,2.4,0.1,3,0.4c1.5,0.5,2.6,2.1,2.6,4.2c0,2-1.1,3.7-2.9,4.3l0,0c0,0,0.2,0.2,0.5,0.7l3.4,6.2H43
			l-3.3-6.3h-3.4V48h-2.2L34,32.1L34,32.1z M39.4,39.8c1.7,0,2.8-1.1,2.8-2.9c0-1.2-0.4-2-1.3-2.4C40.5,34.3,40,34,38.7,34h-2.6v5.7
			C36.1,39.8,39.4,39.8,39.4,39.8z"/>
		<path d="M50.2,45.7h2.3V48h-2.3V45.7z"/>
		<path d="M58.6,44.5c0,0,1.7,1.7,4,1.7c1.5,0,2.7-0.8,2.7-2.3c0-3.4-7.7-2.7-7.7-7.6c0-2.5,2.1-4.4,5.1-4.4c2.9,0,4.5,1.6,4.5,1.6
			l-1,1.8c0,0-1.5-1.4-3.5-1.4c-1.7,0-2.9,1.1-2.9,2.3c0,3.3,7.7,2.4,7.7,7.5c0,2.4-1.9,4.5-5,4.5c-3.4,0-5.3-2.1-5.3-2.1L58.6,44.5
			z"/>
	</g>
</g>
</svg>
