<svg version="1.1" xmlns="http://www.w3.org/2000/svg" xmlns:xlink="http://www.w3.org/1999/xlink" x="0px" y="0px"
	 viewBox="28 -29 82 82" xml:space="preserve">
	<style type="text/css">
		.st0{fill:#FFFFFF;}
	</style>
	<circle cx="-1376" cy="34.9" r="40"/>
	<g>
		<path class="st0" d="M-1394.2,38.3h-6l-1.6,4.6h-2.3l5.7-15.9h2.3l5.7,15.9h-2.3L-1394.2,38.3z M-1397.1,29.2c0,0-0.4,1.4-0.6,2.2
			l-1.8,5h4.8l-1.8-5C-1396.8,30.6-1397.1,29.2-1397.1,29.2L-1397.1,29.2z"/>
		<path class="st0" d="M-1382.5,27h4.9c1.7,0,2.4,0.1,3,0.4c1.6,0.6,2.7,2.2,2.7,4.3c0,2-1.1,3.7-2.9,4.3v0c0,0,0.2,0.2,0.5,0.7
			l3.4,6.2h-2.5l-3.3-6.3h-3.4v6.3h-2.2V27z M-1377.1,34.6c1.7,0,2.8-1.1,2.8-2.9c0-1.2-0.4-2-1.3-2.4c-0.4-0.2-0.9-0.4-2.2-0.4h-2.6
			v5.7H-1377.1z"/>
		<path class="st0" d="M-1366.3,40.6h2.3v2.3h-2.3V40.6z"/>
		<path class="st0" d="M-1357.9,39.4c0,0,1.7,1.7,4,1.7c1.5,0,2.7-0.8,2.7-2.3c0-3.4-7.7-2.7-7.7-7.6c0-2.5,2.1-4.4,5.1-4.4
			c2.9,0,4.5,1.6,4.5,1.6l-1,1.8c0,0-1.5-1.4-3.5-1.4c-1.7,0-2.9,1.1-2.9,2.3c0,3.3,7.7,2.4,7.7,7.5c0,2.4-1.9,4.5-5,4.5
			c-3.4,0-5.3-2.1-5.3-2.1L-1357.9,39.4z"/>
	</g>
	<g>
		<circle cx="69" cy="12" r="40"/>
		<g>
			<path class="st0" d="M50.8,15.5h-6L43.3,20H41l5.7-15.9H49L54.8,20h-2.3L50.8,15.5z M47.9,6.3c0,0-0.4,1.4-0.6,2.2l-1.8,5h4.8
				l-1.8-5C48.2,7.8,47.9,6.3,47.9,6.3L47.9,6.3z"/>
			<path class="st0" d="M62.5,4.2h4.9c1.7,0,2.4,0.1,3,0.4C71.9,5.1,73,6.7,73,8.8c0,2-1.1,3.7-2.9,4.3v0c0,0,0.2,0.2,0.5,0.7
				l3.4,6.2h-2.5l-3.3-6.3h-3.4V20h-2.2V4.2z M67.9,11.8c1.7,0,2.8-1.1,2.8-2.9c0-1.2-0.4-2-1.3-2.4c-0.4-0.2-0.9-0.4-2.2-0.4h-2.6
				v5.7H67.9z"/>
			<path class="st0" d="M78.7,17.7H81V20h-2.3V17.7z"/>
			<path class="st0" d="M87.1,16.5c0,0,1.7,1.7,4,1.7c1.5,0,2.7-0.8,2.7-2.3c0-3.4-7.7-2.7-7.7-7.6c0-2.5,2.1-4.4,5.1-4.4
				c2.9,0,4.5,1.6,4.5,1.6l-1,1.8c0,0-1.5-1.4-3.5-1.4c-1.7,0-2.9,1.1-2.9,2.3c0,3.3,7.7,2.4,7.7,7.5c0,2.4-1.9,4.5-5,4.5
				c-3.4,0-5.3-2.1-5.3-2.1L87.1,16.5z"/>
		</g>
	</g>
</svg>
