<?xml version="1.0" encoding="utf-8"?>
<svg version="1.1" xmlns="http://www.w3.org/2000/svg" xmlns:xlink="http://www.w3.org/1999/xlink" x="0px" y="0px"
	 viewBox="27 -28 80 80" xml:space="preserve">
<g>
	<path d="M37-14.5h-6.1l-1.6,4.7h-2.3l5.8-16.2h2.4L41-9.9h-2.4L37-14.5z M34-23.9c0,0-0.4,1.5-0.6,2.3l-1.8,5.2h4.9l-1.8-5.2
		C34.3-22.4,34-23.9,34-23.9L34-23.9z"/>
	<path d="M48.9-26.1h2.3v14.3h7.3v2h-9.5V-26.1z"/>
	<path d="M73.4-26.4c3.9,0,5.9,2,5.9,2l-1.1,1.7c0,0-1.8-1.6-4.6-1.6c-3.8,0-6.1,2.8-6.1,6.3c0,3.8,2.6,6.4,6,6.4c2.8,0,4.6-2,4.6-2
		V-16h-2.6v-2h4.7v8.2h-2v-1c0-0.3,0-0.7,0-0.7h0c0,0-1.8,2-5,2c-4.4,0-8-3.4-8-8.4C65.1-22.7,68.6-26.4,73.4-26.4z"/>
	<path d="M96.4-26.4c4.7,0,8.3,3.6,8.3,8.3c0,4.8-3.6,8.5-8.3,8.5c-4.7,0-8.3-3.7-8.3-8.5C88-22.8,91.7-26.4,96.4-26.4z M96.4-11.7
		c3.3,0,6-2.8,6-6.4c0-3.5-2.7-6.2-6-6.2s-6,2.7-6,6.2C90.4-14.4,93.1-11.7,96.4-11.7z"/>
	<path d="M29,2.9h5c1.7,0,2.4,0.1,3,0.4c1.7,0.6,2.7,2.3,2.7,4.4c0,2.1-1.1,3.8-2.9,4.4v0c0,0,0.2,0.2,0.5,0.7l3.4,6.3h-2.6
		l-3.4-6.5h-3.5v6.5H29V2.9z M34.5,10.7c1.8,0,2.9-1.1,2.9-2.9c0-1.2-0.5-2-1.3-2.5c-0.4-0.2-1-0.4-2.2-0.4h-2.6v5.8H34.5z"/>
	<path d="M49.2,2.9h9.4v2h-7.2V10h5.8v2h-5.8v5.2H59v2h-9.8V2.9z"/>
	<path d="M67.9,15.6c0,0,1.7,1.7,4.1,1.7c1.5,0,2.8-0.9,2.8-2.4c0-3.5-7.9-2.8-7.9-7.7c0-2.5,2.2-4.5,5.2-4.5c3,0,4.6,1.6,4.6,1.6
		l-1,1.9c0,0-1.5-1.4-3.6-1.4c-1.7,0-2.9,1.1-2.9,2.4c0,3.4,7.9,2.5,7.9,7.7c0,2.5-1.9,4.6-5.2,4.6c-3.4,0-5.4-2.1-5.4-2.1
		L67.9,15.6z"/>
	<path d="M85.4,16.8h2.3v2.4h-2.3V16.8z"/>
	<path d="M29,44.6c0,0,1.7,1.7,4.1,1.7c1.5,0,2.8-0.9,2.8-2.4c0-3.5-7.9-2.8-7.9-7.7c0-2.5,2.2-4.5,5.2-4.5c3,0,4.6,1.6,4.6,1.6
		l-1,1.9c0,0-1.5-1.4-3.6-1.4c-1.7,0-2.9,1.1-2.9,2.4c0,3.4,7.9,2.5,7.9,7.7c0,2.5-1.9,4.6-5.2,4.6c-3.4,0-5.4-2.1-5.4-2.1L29,44.6z
		"/>
	<path d="M50.4,41.3L45,31.9h2.6l3,5.3c0.5,0.9,1,2,1,2h0c0,0,0.5-1.1,1-2l3-5.3h2.6l-5.4,9.4v6.9h-2.3V41.3z"/>
	<path d="M66.1,44.6c0,0,1.7,1.7,4.1,1.7c1.5,0,2.8-0.9,2.8-2.4c0-3.5-7.9-2.8-7.9-7.7c0-2.5,2.2-4.5,5.2-4.5c3,0,4.6,1.6,4.6,1.6
		l-1,1.9c0,0-1.5-1.4-3.6-1.4c-1.7,0-2.9,1.1-2.9,2.4c0,3.4,7.9,2.5,7.9,7.7c0,2.5-1.9,4.6-5.2,4.6c-3.4,0-5.4-2.1-5.4-2.1
		L66.1,44.6z"/>
	<path d="M87.6,33.9H82v-2h13.4v2h-5.6v14.3h-2.3V33.9z"/>
</g>
</svg>
