<?xml version="1.0" encoding="utf-8"?>
<!-- Generator: Adobe Illustrator 19.0.0, SVG Export Plug-In . SVG Version: 6.00 Build 0)  -->
<svg version="1.1" id="Layer_1" xmlns="http://www.w3.org/2000/svg" xmlns:xlink="http://www.w3.org/1999/xlink" x="0px" y="0px"
	 width="80px" height="80px" viewBox="-4 6 80 80" style="enable-background:new -4 6 80 80;" xml:space="preserve">
<g>
	<path d="M8.6,20.4H1.9l-2,5.4h-1l5.9-15.7h1l5.9,15.7h-1L8.6,20.4z M5.2,11.2c0,0-0.3,1.2-0.6,1.9l-2.4,6.4h6l-2.4-6.4
		C5.6,12.4,5.3,11.2,5.2,11.2L5.2,11.2z"/>
	<path d="M19.8,10.1h1v14.8h7.5v0.9h-8.5V10.1z"/>
	<path d="M42.7,9.8c3.5,0,5.5,1.8,5.5,1.8l-0.6,0.7c0,0-1.9-1.6-4.9-1.6c-4,0-6.8,3.1-6.8,7.2s2.8,7.2,6.7,7.2
		c3.4,0,5.4-2.6,5.4-2.6v-3h-2.8v-0.9H49v7.2h-1v-1.4c0-0.3,0-0.7,0-0.7l0,0c0,0-1.9,2.3-5.4,2.3c-4.4,0-7.7-3.6-7.7-8.1
		C34.8,13.4,38.2,9.8,42.7,9.8z"/>
	<path d="M65.1,9.8c4.4,0,8,3.5,8,8c0,4.6-3.6,8.2-8,8.2s-8-3.6-8-8.2C57.2,13.3,60.7,9.8,65.1,9.8z M65.1,25.1
		c3.8,0,6.9-3.2,6.9-7.3c0-4-3.1-7.1-6.9-7.1s-6.9,3.1-6.9,7.1C58.2,22,61.3,25.1,65.1,25.1z"/>
	<path d="M0.9,38.2h4.6c1.5,0,2.2,0.2,2.8,0.5c1.3,0.7,2.2,2,2.2,3.8c0,2.2-1.3,3.9-3.1,4.3l0,0c0,0,0.2,0.2,0.4,0.6l3.5,6.5h-1.1
		l-3.7-7H2.1v7h-1V38.2H0.9z M6.1,46c2.1,0,3.4-1.5,3.4-3.6c0-1.4-0.7-2.5-1.8-3C7.3,39.2,6.8,39,5.5,39H1.9v7L6.1,46L6.1,46z"/>
	<path d="M20.2,38.2h8.6V39h-7.6v6.4h6.3v0.9h-6.3V53h8v0.9h-9V38.2z"/>
	<path d="M37.9,51.4c0,0,1.6,1.8,4.2,1.8c2,0,3.5-1.2,3.5-3.1c0-4.5-8-3.2-8-8.2c0-2.1,1.9-4.1,4.7-4.1c2.6,0,4,1.5,4,1.5l-0.5,0.8
		c0,0-1.3-1.3-3.4-1.3c-2.3,0-3.7,1.6-3.7,3.1c0,4.2,8,2.9,8,8.1c0,2.3-1.8,4.1-4.6,4.1c-3.1,0-4.8-2-4.8-2L37.9,51.4z"/>
	<path d="M55.1,52.5h1.4v1.4h-1.4V52.5z"/>
	<path d="M0.3,79.4c0,0,1.6,1.8,4.2,1.8c2,0,3.5-1.2,3.5-3.1c0-4.5-8-3.2-8-8.2c0-2.1,1.9-4.1,4.7-4.1c2.6,0,4,1.5,4,1.5l-0.5,0.9
		c0,0-1.3-1.3-3.4-1.3c-2.3,0-3.7,1.6-3.7,3.1c0,4.2,8,2.9,8,8.1c0,2.3-1.8,4.1-4.6,4.1c-3.1,0-4.8-2-4.8-2L0.3,79.4z"/>
	<path d="M21.5,75.1l-5.3-8.9h1l3.7,6.2c0.4,0.8,1,1.8,1,1.8l0,0c0,0,0.5-1,1-1.8l3.7-6.2h1.1l-5.3,8.9v6.8h-1L21.5,75.1L21.5,75.1z
		"/>
	<path d="M35.5,79.4c0,0,1.6,1.8,4.2,1.8c2,0,3.5-1.2,3.5-3.1c0-4.5-8-3.2-8-8.2c0-2.1,1.9-4.1,4.7-4.1c2.6,0,4,1.5,4,1.5l-0.5,0.8
		c0,0-1.3-1.3-3.4-1.3c-2.3,0-3.7,1.6-3.7,3.1c0,4.2,8,2.9,8,8.1c0,2.3-1.8,4.1-4.6,4.1c-3.1,0-4.8-2-4.8-2L35.5,79.4z"/>
	<path d="M56.9,67.1H51v-0.9h12.7v0.9h-5.9v14.8h-1V67.1H56.9z"/>
</g>
</svg>
